<svg width="192" height="20" viewBox="0 0 192 20" fill="none" xmlns="http://www.w3.org/2000/svg">
<path d="M24.159 7.89505L24.1747 8.4629V11.7682L24.1708 12.0893C24.1432 15.1165 21.953 17.5837 19.2902 17.5837C16.6273 17.5837 14.4372 15.1204 14.4096 12.0893L14.4056 9.97063L12.0815 9.99804L12.0894 12.101C12.1249 16.4558 15.355 19.9961 19.2902 19.9961C23.2254 19.9961 26.4555 16.4558 26.4909 12.101L26.4791 7.9068C26.5067 4.87958 28.6969 2.41629 31.3597 2.41629C34.0226 2.41629 36.2127 4.87958 36.2403 7.9068L36.2639 9.99804H38.5683L38.5605 7.89505C38.529 3.54024 35.2989 0 31.3597 0C27.4245 0 24.1944 3.54024 24.159 7.89505Z" fill="#00A699"/>
<path d="M12.0774 7.89505L12.0735 8.37674H12.0695V11.7721V12.1519C12.042 15.1753 9.8715 17.5837 7.20864 17.5837C4.54577 17.5837 2.35561 15.1204 2.32804 12.0893L2.3241 9.97063L0 9.99804L0.00393915 12.101C0.0433306 16.4598 3.27343 20 7.20864 20C11.1438 20 14.3739 16.4598 14.4094 12.105L14.3936 7.91071C14.4252 4.88349 16.6153 2.42021 19.2742 2.42021C21.9371 2.42021 24.1273 4.88349 24.1548 7.91071L24.1785 10.002H26.4829L26.4789 7.89896C26.4435 3.54024 23.2134 0 19.2782 0C15.343 0 12.1129 3.54024 12.0774 7.89505Z" fill="#555555"/>
<path d="M59.4262 16.2326C59.4262 15.8606 59.245 15.5434 58.8826 15.2771C58.5202 15.0108 57.8505 14.7758 56.8736 14.5761C55.3964 14.2824 54.2777 13.8398 53.5096 13.2446C52.7454 12.6493 52.3633 11.8426 52.3633 10.8244C52.3633 9.75133 52.8202 8.83494 53.738 8.07912C54.6559 7.32329 55.8731 6.94342 57.3975 6.94342C58.9889 6.94342 60.2652 7.32329 61.2264 8.07912C62.1875 8.83494 62.6445 9.77874 62.609 10.9066L62.5854 10.9771H59.3001C59.3001 10.4758 59.1386 10.0646 58.8117 9.74741C58.4847 9.4302 58.016 9.27356 57.4015 9.27356C56.8579 9.27356 56.4245 9.41062 56.1094 9.68084C55.7903 9.95106 55.6328 10.2839 55.6328 10.6756C55.6328 11.0633 55.7982 11.3766 56.1291 11.6194C56.46 11.8622 57.1297 12.0815 58.1381 12.2734C59.6822 12.5827 60.8364 13.037 61.5927 13.6362C62.349 14.2354 62.7272 15.0578 62.7272 16.1112C62.7272 17.2391 62.2427 18.1633 61.2697 18.88C60.2967 19.5966 59.0165 19.9569 57.4251 19.9569C55.747 19.9569 54.4195 19.534 53.4465 18.6881C52.4736 17.8422 52.0088 16.8788 52.0521 15.7979L52.0757 15.7274H55.1877C55.2113 16.401 55.4319 16.8866 55.8534 17.1882C56.2749 17.4897 56.8224 17.6385 57.496 17.6385C58.1263 17.6385 58.6068 17.5132 58.9338 17.2626C59.2607 17.0041 59.4262 16.6634 59.4262 16.2326Z" fill="#00A699"/>
<path d="M68.9944 4.10025V7.17055H71.1255V9.54376H68.9944V15.9272C68.9944 16.4128 69.0968 16.7613 69.3017 16.9689C69.5065 17.1764 69.7783 17.2822 70.1131 17.2822C70.2904 17.2822 70.448 17.2704 70.5779 17.2547C70.7079 17.2352 70.8616 17.2038 71.031 17.1568L71.3106 19.6005C70.9679 19.718 70.637 19.8042 70.314 19.8629C69.991 19.9217 69.6404 19.9491 69.2583 19.9491C68.0845 19.9491 67.1824 19.628 66.5482 18.9857C65.914 18.3434 65.5989 17.3292 65.5989 15.9389V9.54768H63.7593V7.17446H65.5989V4.10417H68.9944V4.10025Z" fill="#00A699"/>
<path d="M79.8547 10.0803L78.606 10.045C78.1018 10.045 77.6842 10.1508 77.3573 10.3583C77.0303 10.5659 76.7822 10.8596 76.6128 11.2395V19.7102H73.2212V7.17055H76.3804L76.5301 9.02291C76.8255 8.36499 77.2076 7.85588 77.6764 7.48776C78.1451 7.11964 78.6887 6.93558 79.3032 6.93558C79.4726 6.93558 79.6302 6.94733 79.7759 6.97474C79.9177 7.00215 80.0635 7.03348 80.2132 7.07264L79.8547 10.0803Z" fill="#00A699"/>
<path d="M89.0603 19.7063C88.9343 19.4204 88.8279 19.1189 88.7413 18.8016C88.6507 18.4844 88.5876 18.1594 88.5483 17.8304C88.1977 18.4414 87.7368 18.9465 87.1617 19.3499C86.5866 19.7533 85.9012 19.953 85.1094 19.953C83.7898 19.953 82.7695 19.6162 82.0566 18.9387C81.3396 18.2651 80.9851 17.3409 80.9851 16.1778C80.9851 14.9481 81.4617 13.9965 82.4111 13.3229C83.3644 12.6454 84.7509 12.3086 86.5787 12.3086H88.4892V11.3139C88.4892 10.7108 88.3316 10.2448 88.0125 9.91189C87.6935 9.57901 87.2208 9.41453 86.5905 9.41453C86.039 9.41453 85.6136 9.54768 85.3142 9.81398C85.0148 10.0803 84.8652 10.4445 84.8652 10.9105H81.5917L81.5681 10.84C81.513 9.78265 81.9778 8.87018 82.9626 8.09869C83.9434 7.33111 85.2276 6.94733 86.815 6.94733C88.3316 6.94733 89.5567 7.3272 90.4903 8.08302C91.4278 8.83885 91.8965 9.92363 91.8965 11.3374V16.5146C91.8965 17.102 91.9399 17.6542 92.0305 18.1711C92.1211 18.6881 92.2629 19.2011 92.4559 19.7141H89.0603V19.7063ZM85.9484 17.4466C86.5393 17.4466 87.0671 17.2978 87.532 17.008C87.9968 16.7143 88.3158 16.3736 88.4892 15.9898V14.2158H86.5787C85.8578 14.2158 85.3103 14.392 84.94 14.7484C84.5697 15.1048 84.3846 15.5395 84.3846 16.0564C84.3846 16.4833 84.5225 16.8201 84.7982 17.0707C85.0779 17.3213 85.46 17.4466 85.9484 17.4466Z" fill="#00A699"/>
<path d="M98.5261 4.10025V7.17055H100.661V9.54376H98.5261V15.9272C98.5261 16.4128 98.6285 16.7613 98.8373 16.9689C99.0421 17.1764 99.3139 17.2822 99.6488 17.2822C99.826 17.2822 99.9836 17.2704 100.114 17.2547C100.244 17.2352 100.397 17.2038 100.567 17.1568L100.846 19.6005C100.504 19.718 100.173 19.8042 99.8497 19.8629C99.5266 19.9217 99.1761 19.9491 98.794 19.9491C97.6201 19.9491 96.718 19.628 96.0838 18.9857C95.4496 18.3434 95.1345 17.3292 95.1345 15.9389V9.54768H93.2949V7.17446H95.1345V4.10417H98.5261V4.10025Z" fill="#00A699"/>
<path d="M110.19 19.7063C110.064 19.4204 109.958 19.1189 109.871 18.8016C109.78 18.4844 109.717 18.1594 109.678 17.8304C109.327 18.4414 108.866 18.9465 108.291 19.3499C107.716 19.7533 107.031 19.953 106.239 19.953C104.919 19.953 103.899 19.6162 103.186 18.9387C102.473 18.2651 102.115 17.3409 102.115 16.1778C102.115 14.9481 102.591 13.9965 103.541 13.3229C104.494 12.6454 105.881 12.3086 107.708 12.3086H109.619V11.3139C109.619 10.7108 109.461 10.2448 109.142 9.91189C108.823 9.57901 108.35 9.41453 107.72 9.41453C107.169 9.41453 106.743 9.54768 106.444 9.81398C106.144 10.0803 105.995 10.4445 105.995 10.9105H102.721L102.698 10.84C102.643 9.78265 103.107 8.87018 104.092 8.09869C105.073 7.33111 106.357 6.94733 107.945 6.94733C109.461 6.94733 110.686 7.3272 111.62 8.08302C112.557 8.83885 113.022 9.92363 113.022 11.3374V16.5146C113.022 17.102 113.066 17.6542 113.156 18.1711C113.247 18.6881 113.389 19.2011 113.582 19.7141H110.19V19.7063ZM107.078 17.4466C107.669 17.4466 108.197 17.2978 108.662 17.008C109.126 16.7143 109.446 16.3736 109.619 15.9898V14.2158H107.708C106.987 14.2158 106.44 14.392 106.07 14.7484C105.699 15.1048 105.514 15.5395 105.514 16.0564C105.514 16.4833 105.652 16.8201 105.928 17.0707C106.208 17.3213 106.59 17.4466 107.078 17.4466Z" fill="#00A699"/>
<path d="M123.662 16.4989C123.662 15.9115 123.418 15.4024 122.933 14.9638C122.448 14.5252 121.57 14.1688 120.306 13.8907C118.813 13.5814 117.706 13.1584 116.977 12.6219C116.252 12.0854 115.886 11.3335 115.886 10.3701C115.886 9.41062 116.292 8.59997 117.103 7.93813C117.915 7.27238 118.99 6.94342 120.325 6.94342C121.732 6.94342 122.854 7.29588 123.693 8.00471C124.532 8.70962 124.93 9.58294 124.895 10.6168L124.871 10.6873H123.575C123.575 9.99805 123.28 9.40279 122.685 8.88977C122.09 8.38066 121.302 8.12611 120.325 8.12611C119.317 8.12611 118.553 8.34542 118.041 8.78795C117.528 9.22656 117.272 9.7435 117.272 10.327C117.272 10.8988 117.493 11.3726 117.93 11.7447C118.371 12.1206 119.246 12.4496 120.558 12.7355C122.035 13.0605 123.15 13.5109 123.91 14.0905C124.666 14.6701 125.044 15.4494 125.044 16.4324C125.044 17.4741 124.619 18.3239 123.768 18.974C122.917 19.628 121.795 19.953 120.396 19.953C118.864 19.953 117.662 19.5888 116.788 18.8643C115.913 18.1398 115.5 17.2743 115.547 16.2679L115.571 16.1974H116.851C116.906 17.102 117.276 17.756 117.966 18.1672C118.651 18.5745 119.463 18.7821 120.396 18.7821C121.405 18.7821 122.204 18.5589 122.783 18.1085C123.37 17.662 123.662 17.1255 123.662 16.4989Z" fill="#555555"/>
<path d="M132.879 18.7821C133.774 18.7821 134.565 18.5197 135.251 17.9949C135.936 17.4702 136.283 16.7378 136.283 15.8058H137.532L137.555 15.8763C137.587 17.0355 137.13 18.0028 136.18 18.786C135.231 19.5653 134.132 19.9569 132.883 19.9569C131.205 19.9569 129.897 19.3695 128.96 18.1947C128.022 17.0198 127.558 15.5199 127.558 13.6871V13.1976C127.558 11.3726 128.022 9.87666 128.956 8.7018C129.89 7.52694 131.193 6.93951 132.872 6.93951C134.223 6.93951 135.349 7.3468 136.251 8.15745C137.153 8.9681 137.587 10.0333 137.555 11.3531L137.532 11.4236H136.283C136.283 10.421 135.952 9.61819 135.294 9.01901C134.632 8.41984 133.825 8.1222 132.872 8.1222C131.552 8.1222 130.567 8.6039 129.925 9.5712C129.279 10.5385 128.956 11.7447 128.956 13.1976V13.6832C128.956 15.1596 129.279 16.3775 129.925 17.337C130.567 18.3004 131.552 18.7821 132.879 18.7821Z" fill="#555555"/>
<path d="M146.308 8.36499L145.315 8.2945C144.437 8.2945 143.716 8.54122 143.153 9.03074C142.589 9.52027 142.188 10.1939 141.947 11.0515V19.7063H140.549V7.17055H141.774L141.947 9.25788V9.39495C142.314 8.62346 142.802 8.02036 143.417 7.58567C144.031 7.15488 144.76 6.93558 145.607 6.93558C145.776 6.93558 145.942 6.94733 146.095 6.97474C146.249 7.00215 146.379 7.02957 146.481 7.0609L146.308 8.36499Z" fill="#555555"/>
<path d="M156.68 19.7063C156.593 19.2677 156.53 18.8878 156.487 18.5706C156.443 18.2534 156.424 17.9284 156.424 17.5994C155.986 18.2808 155.38 18.8408 154.592 19.2834C153.808 19.7259 152.906 19.9491 151.89 19.9491C150.653 19.9491 149.696 19.6241 149.018 18.9701C148.337 18.3161 147.998 17.431 147.998 16.311C147.998 15.1909 148.49 14.2824 149.479 13.5892C150.468 12.8921 151.748 12.5475 153.324 12.5475H156.424V10.9967C156.424 10.0999 156.136 9.39888 155.565 8.88586C154.994 8.37676 154.186 8.1222 153.146 8.1222C152.189 8.1222 151.421 8.35326 150.834 8.81929C150.247 9.2814 149.956 9.86491 149.956 10.5698H148.66L148.636 10.4993C148.589 9.55553 148.994 8.72921 149.853 8.01255C150.712 7.2998 151.831 6.93951 153.217 6.93951C154.6 6.93951 155.711 7.29197 156.55 7.99297C157.389 8.69789 157.81 9.70435 157.81 11.0163V17.1804C157.81 17.619 157.834 18.0498 157.885 18.4649C157.936 18.88 158.019 19.2951 158.133 19.7063H156.68ZM152.039 18.7233C153.111 18.7233 154.04 18.4727 154.824 17.9636C155.608 17.4584 156.14 16.8083 156.42 16.0133V13.6166H153.308C152.173 13.6166 151.236 13.8868 150.499 14.4234C149.763 14.9599 149.392 15.6061 149.392 16.3658C149.392 17.0746 149.629 17.6464 150.097 18.0811C150.57 18.5079 151.216 18.7233 152.039 18.7233Z" fill="#555555"/>
<path d="M163.707 3.96321V7.17448H166.48V8.31018H163.707V16.4794C163.707 17.2978 163.857 17.8774 164.156 18.2221C164.456 18.5667 164.854 18.739 165.35 18.739C165.519 18.739 165.685 18.7312 165.846 18.7116C166.004 18.692 166.193 18.6607 166.413 18.6137L166.622 19.6436C166.437 19.7376 166.205 19.812 165.929 19.8708C165.653 19.9295 165.381 19.9569 165.106 19.9569C164.219 19.9569 163.53 19.6789 163.038 19.1228C162.545 18.5667 162.297 17.6855 162.297 16.4833V8.30626H160.119V7.17057H162.297V3.95929H163.707V3.96321Z" fill="#555555"/>
<path d="M173.823 18.7821C174.717 18.7821 175.509 18.5197 176.194 17.9949C176.88 17.4702 177.226 16.7378 177.226 15.8058H178.475L178.499 15.8763C178.53 17.0355 178.073 18.0028 177.124 18.786C176.175 19.5653 175.076 19.9569 173.827 19.9569C172.149 19.9569 170.841 19.3695 169.907 18.1947C168.97 17.0198 168.505 15.5199 168.505 13.6871V13.1976C168.505 11.3726 168.97 9.87666 169.904 8.7018C170.837 7.52694 172.141 6.93951 173.819 6.93951C175.17 6.93951 176.297 7.3468 177.199 8.15745C178.101 8.9681 178.534 10.0333 178.503 11.3531L178.479 11.4236H177.23C177.23 10.421 176.899 9.61819 176.242 9.01901C175.58 8.41984 174.772 8.1222 173.819 8.1222C172.499 8.1222 171.515 8.6039 170.873 9.5712C170.227 10.5385 169.904 11.7447 169.904 13.1976V13.6832C169.904 15.1596 170.227 16.3775 170.873 17.337C171.507 18.3004 172.492 18.7821 173.823 18.7821Z" fill="#555555"/>
<path d="M182.891 9.30096C183.316 8.55297 183.88 7.96946 184.577 7.55826C185.27 7.14314 186.085 6.9395 187.019 6.9395C188.347 6.9395 189.367 7.3507 190.08 8.16918C190.789 8.98767 191.147 10.2604 191.147 11.9796V19.7063H189.749V11.9561C189.749 10.5972 189.477 9.62209 188.937 9.03075C188.398 8.4394 187.653 8.14569 186.704 8.14569C185.727 8.14569 184.92 8.38457 184.285 8.85843C183.651 9.33229 183.186 9.97063 182.891 10.7656V19.7102H181.492V1.63306H182.891V9.30096Z" fill="#555555"/>
</svg>
